<svg width="10" height="24" viewBox="0 0 10 24" fill="none" xmlns="http://www.w3.org/2000/svg">
<path d="M7.0268 15.0088C7.0268 15.2616 7.1541 15.4973 7.36544 15.6359C8.12382 16.1334 8.69664 16.8554 9.00206 17.6934C9.30742 18.5312 9.33017 19.4426 9.06716 20.2938C8.8041 21.1452 8.2683 21.8936 7.53607 22.4267C6.80363 22.96 5.91416 23.249 4.99902 23.249C4.08388 23.249 3.19441 22.96 2.46197 22.4267C1.72974 21.8936 1.19394 21.1452 0.93088 20.2938C0.667871 19.4426 0.690624 18.5312 0.995978 17.6934C1.3014 16.8554 1.87422 16.1334 2.63261 15.6359C2.84394 15.4973 2.97124 15.2616 2.97124 15.0088L2.97125 2.72609C2.97125 2.20625 3.18146 1.70484 3.56026 1.33296C3.93953 0.960615 4.45681 0.749024 4.99902 0.749024C5.54124 0.749024 6.05852 0.960616 6.43779 1.33296C6.81658 1.70484 7.0268 2.20625 7.0268 2.72609L7.0268 15.0088Z" stroke="#323232" stroke-width="1.5" stroke-linecap="round" stroke-linejoin="round"/>
</svg>
