<svg width="18" height="24" viewBox="0 0 18 24" fill="none" xmlns="http://www.w3.org/2000/svg">
<path d="M15.2338 1H2.76623C1.79077 1 1 1.71558 1 2.59829V21.4017C1 22.2844 1.79077 23 2.76623 23H15.2338C16.2092 23 17 22.2844 17 21.4017V2.59829C17 1.71558 16.2092 1 15.2338 1Z" fill="" stroke="#122C44" stroke-width="1.5"/>
<path d="M5 6.5C5 4.56702 6.79088 3 9 3C11.2091 3 13 4.56702 13 6.5C13 8.43298 11.2091 10 9 10C6.79088 10 5 8.43298 5 6.5Z" fill="" stroke="#122C44" stroke-width="1.5"/>
<path d="M8 6.5C8 5.67158 8.44772 5 9 5C9.55228 5 10 5.67158 10 6.5C10 7.32842 9.55228 8 9 8C8.44772 8 8 7.32842 8 6.5Z" fill="" stroke="#122C44" stroke-width="1.5"/>
<path d="M17 12H1" stroke="#122C44" stroke-width="1.5"/>
<path d="M13 15H5" stroke="#122C44" stroke-width="1.5" stroke-linecap="round"/>
<path d="M13 17H5" stroke="#122C44" stroke-width="1.5" stroke-linecap="round"/>
<path d="M13 19H5" stroke="#122C44" stroke-width="1.5" stroke-linecap="round"/>
<path d="M17 20H1" stroke="#122C44" stroke-width="1.5"/>
</svg>
