<svg width="26" height="23" viewBox="0 0 26 23" fill="none" xmlns="http://www.w3.org/2000/svg">
<path d="M23.989 7.26L13.989 1.56303C13.3753 1.2134 12.6227 1.2134 12.009 1.56303L2.00901 7.26C1.38459 7.61573 0.999023 8.27913 0.999023 8.99778V19.5081C0.999023 20.6127 1.89445 21.5081 2.99902 21.5081H22.999C24.1036 21.5081 24.999 20.6127 24.999 19.5081V8.99778C24.999 8.27913 24.6135 7.61573 23.989 7.26Z" stroke="#323232" stroke-width="1.5" stroke-linejoin="round"/>
<line x1="6.54883" y1="11.4492" x2="19.4488" y2="11.4492" stroke="#323232" stroke-width="1.5" stroke-linecap="round"/>
<line x1="6.54883" y1="13.8491" x2="19.4488" y2="13.8491" stroke="#323232" stroke-width="1.5" stroke-linecap="round"/>
<line x1="6.54883" y1="16.249" x2="19.4488" y2="16.249" stroke="#323232" stroke-width="1.5" stroke-linecap="round"/>
<line x1="6.54883" y1="18.6492" x2="19.4488" y2="18.6492" stroke="#323232" stroke-width="1.5" stroke-linecap="round"/>
<path d="M5.79883 21.5081V11.2026C5.79883 10.0981 6.69426 9.20264 7.79883 9.20264H18.1988C19.3034 9.20264 20.1988 10.0981 20.1988 11.2026V21.5081" stroke="#323232" stroke-width="1.5" stroke-linecap="round"/>
</svg>
