<svg width="24" height="26" viewBox="0 0 24 26" fill="none" xmlns="http://www.w3.org/2000/svg">
<path d="M20.193 11.8032H3.39828C2.07321 11.8032 0.999023 12.8774 0.999023 14.2025V22.5999C0.999023 23.9249 2.07321 24.9991 3.39828 24.9991H20.193C21.5181 24.9991 22.5923 23.9249 22.5923 22.5999V14.2025C22.5923 12.8774 21.5181 11.8032 20.193 11.8032Z" stroke="#323232" stroke-width="1.5" stroke-linecap="round" stroke-linejoin="round"/>
<path d="M5.79541 11.8017V7.0032C5.79392 5.51572 6.34518 4.08075 7.34218 2.97685C8.33918 1.87296 9.71079 1.17889 11.1907 1.0294C12.6707 0.879915 14.1534 1.28566 15.351 2.16788C16.5486 3.0501 17.3757 4.34584 17.6717 5.80357V11.8017" stroke="#323232" stroke-width="1.5" stroke-linecap="round" stroke-linejoin="round"/>
</svg>
