<svg width="26" height="26" viewBox="0 0 26 26" fill="none" xmlns="http://www.w3.org/2000/svg">
<path d="M9.31982 18.999C9.31982 17.7564 10.3272 16.749 11.5698 16.749H14.1413C15.3839 16.749 16.3913 17.7564 16.3913 18.999V25.249H9.31982V18.999Z" stroke="#323232" stroke-width="1.5"/>
<path d="M7.89111 13.1419C7.89111 12.3726 8.51472 11.749 9.28397 11.749H16.4268C17.1961 11.749 17.8197 12.3726 17.8197 13.1419C17.8197 13.9111 17.1961 14.5347 16.4268 14.5347H9.28397C8.51472 14.5347 7.89111 13.9111 7.89111 13.1419Z" stroke="#323232" stroke-width="1.5"/>
<mask id="path-3-inside-1_1_831" fill="white">
<path d="M9.99902 14.749H10.9365V16.624H9.99902V14.749Z"/>
</mask>
<path d="M9.99902 14.749V13.249H8.49902V14.749H9.99902ZM10.9365 14.749H12.4365V13.249H10.9365V14.749ZM10.9365 16.624V18.124H12.4365V16.624H10.9365ZM9.99902 16.624H8.49902V18.124H9.99902V16.624ZM9.99902 16.249H10.9365V13.249H9.99902V16.249ZM9.43652 14.749V16.624H12.4365V14.749H9.43652ZM10.9365 15.124H9.99902V18.124H10.9365V15.124ZM11.499 16.624V14.749H8.49902V16.624H11.499Z" fill="#323232" mask="url(#path-3-inside-1_1_831)"/>
<mask id="path-5-inside-2_1_831" fill="white">
<path d="M14.999 14.749H15.9365V16.624H14.999V14.749Z"/>
</mask>
<path d="M14.999 14.749V13.249H13.499V14.749H14.999ZM15.9365 14.749H17.4365V13.249H15.9365V14.749ZM15.9365 16.624V18.124H17.4365V16.624H15.9365ZM14.999 16.624H13.499V18.124H14.999V16.624ZM14.999 16.249H15.9365V13.249H14.999V16.249ZM14.4365 14.749V16.624H17.4365V14.749H14.4365ZM15.9365 15.124H14.999V18.124H15.9365V15.124ZM16.499 16.624V14.749H13.499V16.624H16.499Z" fill="#323232" mask="url(#path-5-inside-2_1_831)"/>
<line x1="-0.000976562" y1="25.249" x2="24.999" y2="25.249" stroke="#323232" stroke-width="1.5"/>
<path d="M12.8569 9.57045V0.999023" stroke="#323232" stroke-width="1.5" stroke-linecap="round" stroke-dasharray="3 3"/>
<path d="M15.7119 9.57028L20.7119 1.71313" stroke="#323232" stroke-width="1.5" stroke-linecap="round" stroke-dasharray="3 3"/>
<path d="M19.2861 10.9985L24.2861 5.64136" stroke="#323232" stroke-width="1.5" stroke-linecap="round" stroke-dasharray="3 3"/>
<path d="M6.42822 10.9985L1.42822 5.64136" stroke="#323232" stroke-width="1.5" stroke-linecap="round" stroke-dasharray="3 3"/>
<path d="M9.99902 9.57028L4.99902 1.71313" stroke="#323232" stroke-width="1.5" stroke-linecap="round" stroke-dasharray="3 3"/>
</svg>
