<svg width="18" height="24" viewBox="0 0 18 24" fill="none" xmlns="http://www.w3.org/2000/svg">
<mask id="path-1-inside-1_1_697" fill="white">
<path fill-rule="evenodd" clip-rule="evenodd" d="M12.2473 18.7192C12.2473 18.0665 12.6538 17.4921 13.2279 17.1816C16.0668 15.6466 17.999 12.6143 17.999 9.12437C17.999 4.08458 13.9696 -0.000976562 8.99902 -0.000976562C4.02846 -0.000976562 -0.000976562 4.08458 -0.000976562 9.12437C-0.000976562 12.5191 1.82726 15.4809 4.53988 17.0527C5.1168 17.387 5.523 17.9771 5.523 18.6439V18.6439C5.523 19.5619 6.26718 20.3061 7.18516 20.3061H10.6604C11.5368 20.3061 12.2473 19.5956 12.2473 18.7192V18.7192Z"/>
</mask>
<path d="M4.53988 17.0527L4.03852 17.918L4.53988 17.0527ZM13.2279 17.1816L12.7523 16.302L13.2279 17.1816ZM16.999 9.12437C16.999 12.2376 15.2766 14.9371 12.7523 16.302L13.7036 18.0613C16.8571 16.3562 18.999 12.991 18.999 9.12437H16.999ZM8.99902 0.999023C13.4043 0.999023 16.999 4.62378 16.999 9.12437H18.999C18.999 3.54538 14.5349 -1.00098 8.99902 -1.00098V0.999023ZM0.999023 9.12437C0.999023 4.62378 4.59374 0.999023 8.99902 0.999023V-1.00098C3.46318 -1.00098 -1.00098 3.54538 -1.00098 9.12437H0.999023ZM5.04124 16.1875C2.62869 14.7895 0.999023 12.1526 0.999023 9.12437H-1.00098C-1.00098 12.8856 1.02582 16.1723 4.03852 17.918L5.04124 16.1875ZM10.6604 19.3061H7.18516V21.3061H10.6604V19.3061ZM4.523 18.6439C4.523 20.1142 5.71489 21.3061 7.18516 21.3061V19.3061C6.81946 19.3061 6.523 19.0096 6.523 18.6439H4.523ZM4.03852 17.918C4.36806 18.1089 4.523 18.3994 4.523 18.6439H6.523C6.523 17.5549 5.86554 16.6651 5.04124 16.1875L4.03852 17.918ZM10.6604 21.3061C12.0891 21.3061 13.2473 20.1479 13.2473 18.7192H11.2473C11.2473 19.0433 10.9845 19.3061 10.6604 19.3061V21.3061ZM12.7523 16.302C11.9168 16.7537 11.2473 17.6341 11.2473 18.7192H13.2473C13.2473 18.499 13.3908 18.2304 13.7036 18.0613L12.7523 16.302Z" fill="#323232" mask="url(#path-1-inside-1_1_697)"/>
<line x1="6.88574" y1="21.4033" x2="10.8874" y2="21.4033" stroke="#323232" stroke-width="1.5" stroke-linecap="round"/>
<line x1="7.49463" y1="23.249" x2="10.2737" y2="23.249" stroke="#323232" stroke-width="1.5" stroke-linecap="round"/>
</svg>
