<svg width="21" height="27" viewBox="0 0 21 27" fill="none" xmlns="http://www.w3.org/2000/svg">
<path d="M17.8275 1H3.17254C1.97268 1 1 1.92149 1 3.0582V16.9418C1 18.0785 1.97268 19 3.17254 19H17.8275C19.0273 19 20 18.0785 20 16.9418V3.0582C20 1.92149 19.0273 1 17.8275 1Z" fill="transparent" stroke="#475467" stroke-width="1.5"/>
<path d="M10.5 15C13.5376 15 16 12.7614 16 10C16 7.23858 13.5376 5 10.5 5C7.46243 5 5 7.23858 5 10C5 12.7614 7.46243 15 10.5 15Z" fill="transparent" stroke="#475467" stroke-width="1.5"/>
<path d="M16 24C14.4558 25.2923 12.5097 26 10.5 26C8.49031 26 6.54416 25.2923 5 24" stroke="#475467" stroke-width="1.5" stroke-linecap="round" stroke-linejoin="round"/>
<path d="M13 21C12.2696 21.6505 11.3959 22 10.5 22C9.60408 22 8.73036 21.6505 8 21" stroke="#475467" stroke-width="1.5" stroke-linecap="round" stroke-linejoin="round"/>
</svg>
