<svg width="26" height="17" viewBox="0 0 26 17" fill="none" xmlns="http://www.w3.org/2000/svg">
<path d="M5.77203 15.3181H3.38553C2.75259 15.3181 2.14557 15.0666 1.69801 14.6191C1.25046 14.1715 0.999023 13.5645 0.999023 12.9315L0.999023 3.38553C0.999023 2.75259 1.25046 2.14557 1.69801 1.69801C2.14557 1.25046 2.75259 0.999023 3.38553 0.999023L7.192 0.999023M17.7046 0.999023L20.0911 0.999023C20.724 0.999023 21.331 1.25046 21.7786 1.69801C22.2261 2.14557 22.4776 2.75259 22.4776 3.38553V12.9315C22.4776 13.5645 22.2261 14.1715 21.7786 14.6191C21.331 15.0666 20.724 15.3181 20.0911 15.3181H16.2846" stroke="#323232" stroke-width="1.5" stroke-linecap="round" stroke-linejoin="round"/>
<path d="M24.999 10.7496V5.49927" stroke="#323232" stroke-width="1.5" stroke-linecap="round" stroke-linejoin="round"/>
<path d="M12.9307 0.999023L8.15771 8.15854H15.3172L10.5442 15.3181" stroke="#323232" stroke-width="1.5" stroke-linecap="round" stroke-linejoin="round"/>
</svg>
