<svg width="24" height="24" viewBox="0 0 24 24" fill="none" xmlns="http://www.w3.org/2000/svg">
<path d="M5.03174 12.0004C5.03174 8.15415 8.14976 5.03613 11.996 5.03613C15.8423 5.03613 18.9603 8.15415 18.9603 12.0004V16.8218H5.03174V12.0004Z" stroke="#323232" stroke-width="1.5"/>
<path d="M4.17285 19.0691C4.17285 18.1815 4.89239 17.4619 5.77999 17.4619H18.2086C19.0962 17.4619 19.8157 18.1815 19.8157 19.0691C19.8157 19.9567 19.0962 20.6762 18.2086 20.6762H5.77999C4.89239 20.6762 4.17285 19.9567 4.17285 19.0691Z" stroke="#323232" stroke-width="1.5"/>
<path d="M8.08435 10.3478C8.52227 9.30922 9.35485 8.4871 10.3989 8.06234" stroke="#323232" stroke-width="1.5" stroke-linecap="round"/>
<path d="M5.99789 5.14693C7.65996 3.69164 9.79434 2.8901 12.0035 2.8916C14.2126 2.89311 16.3459 3.69756 18.006 5.15511" stroke="#323232" stroke-width="1.5" stroke-linecap="round"/>
<path d="M4.04407 4.04407C5.08873 2.99942 6.32892 2.17075 7.69383 1.60538C9.05874 1.04001 10.5216 0.749024 11.999 0.749023C13.4764 0.749023 14.9393 1.04001 16.3042 1.60538C17.6691 2.17074 18.9093 2.99941 19.954 4.04407" stroke="#323232" stroke-width="1.5" stroke-linecap="round"/>
</svg>
