<svg width="29" height="20" viewBox="0 0 29 20" fill="none" xmlns="http://www.w3.org/2000/svg">
<path d="M28 6.9375C28 8.45904 26.6252 9.94375 24.1454 11.0679C21.6948 12.1788 18.285 12.875 14.5 12.875C10.715 12.875 7.30522 12.1788 4.85458 11.0679C2.37483 9.94375 1 8.45904 1 6.9375C1 5.41596 2.37483 3.9312 4.85458 2.80708C7.30522 1.69617 10.715 1 14.5 1C18.285 1 21.6948 1.69617 24.1454 2.80708C26.6252 3.9312 28 5.41596 28 6.9375Z" fill="" stroke="#122C44" stroke-width="1.5"/>
<path fill-rule="evenodd" clip-rule="evenodd" d="M26.8262 11.7013V8.11124V7.93167H26.8207C26.6232 4.74314 21.1827 2.1875 14.5002 2.1875C7.81765 2.1875 2.37717 4.74314 2.17962 7.93167H2.17407V8.11124V11.7013V11.8808H2.17962C2.37717 15.0693 7.81765 17.625 14.5002 17.625C21.1827 17.625 26.6232 15.0693 26.8207 11.8808H26.8262V11.7013Z" fill=""/>
<path d="M28 11.6875C28 13.209 26.6252 14.6938 24.1454 15.8179C21.6948 16.9288 18.285 17.625 14.5 17.625C10.715 17.625 7.30522 16.9288 4.85458 15.8179C2.37483 14.6938 1 13.209 1 11.6875C1 10.166 2.37483 8.6812 4.85458 7.55708C7.30522 6.44617 10.715 5.75 14.5 5.75C18.285 5.75 21.6948 6.44617 24.1454 7.55708C26.6252 8.6812 28 10.166 28 11.6875Z" fill="" stroke="#122C44" stroke-width="1.5"/>
<path fill-rule="evenodd" clip-rule="evenodd" d="M23.3044 11.8922V11.8928V15.0453V15.4963H23.2684C22.8636 18.0213 19.0924 20 14.5 20C9.90763 20 6.13647 18.0213 5.73164 15.4963H5.69568V15.0453V11.8928V11.8922C5.69568 9.15578 9.63752 6.9375 14.5 6.9375C19.3625 6.9375 23.3044 9.15578 23.3044 11.8922Z" fill=""/>
<path d="M23.3044 12.875C23.3044 13.7568 22.4468 14.6467 20.821 15.3342C19.2211 16.0107 16.9866 16.4375 14.5 16.4375C12.0134 16.4375 9.77898 16.0107 8.17905 15.3342C6.55324 14.6467 5.69568 13.7568 5.69568 12.875C5.69568 11.9932 6.55324 11.1033 8.17905 10.4158C9.77898 9.73931 12.0134 9.3125 14.5 9.3125C16.9866 9.3125 19.2211 9.73931 20.821 10.4158C22.4468 11.1033 23.3044 11.9932 23.3044 12.875Z" fill="" stroke="#122C44" stroke-width="1.5"/>
<path d="M23.3044 15.25C23.3044 16.1318 22.4468 17.0217 20.821 17.7092C19.2211 18.3857 16.9866 18.8125 14.5 18.8125C12.0134 18.8125 9.77898 18.3857 8.17905 17.7092C6.55324 17.0217 5.69568 16.1318 5.69568 15.25C5.69568 14.3682 6.55324 13.4783 8.17905 12.7908C9.77898 12.1143 12.0134 11.6875 14.5 11.6875C16.9866 11.6875 19.2211 12.1143 20.821 12.7908C22.4468 13.4783 23.3044 14.3682 23.3044 15.25Z" fill="" stroke="#122C44" stroke-width="1.5"/>
<path d="M18.6086 15.8438C18.6086 16.2565 18.2465 16.6962 17.4879 17.0508C16.7421 17.3995 15.6864 17.625 14.4999 17.625C13.3134 17.625 12.2578 17.3995 11.5119 17.0508C10.7534 16.6962 10.3912 16.2565 10.3912 15.8438C10.3912 15.431 10.7534 14.9913 11.5119 14.6367C12.2578 14.288 13.3134 14.0625 14.4999 14.0625C15.6864 14.0625 16.7421 14.288 17.4879 14.6367C18.2465 14.9913 18.6086 15.431 18.6086 15.8438Z" fill="" stroke="#122C44" stroke-width="1.5"/>
</svg>
