<svg width="18" height="26" viewBox="0 0 18 26" fill="none" xmlns="http://www.w3.org/2000/svg">
<path d="M8.99888 0.999023C8.08957 0.999023 7.2175 1.34383 6.57452 1.95758C5.93154 2.57134 5.57031 3.40377 5.57031 4.27175V12.999C5.57031 13.867 5.93154 14.6994 6.57452 15.3132C7.2175 15.9269 8.08957 16.2718 8.99888 16.2718C9.9082 16.2718 10.7803 15.9269 11.4233 15.3132C12.0662 14.6994 12.4275 13.867 12.4275 12.999V4.27175C12.4275 3.40377 12.0662 2.57134 11.4233 1.95758C10.7803 1.34383 9.9082 0.999023 8.99888 0.999023V0.999023Z" stroke="#323232" stroke-width="2" stroke-linecap="round" stroke-linejoin="round"/>
<path d="M16.999 10.8171V12.999C16.999 15.0242 16.1562 16.9666 14.6559 18.3987C13.1556 19.8308 11.1208 20.6353 8.99902 20.6353C6.87729 20.6353 4.84246 19.8308 3.34217 18.3987C1.84188 16.9666 0.999023 15.0242 0.999023 12.999V10.8171" stroke="#323232" stroke-width="2" stroke-linecap="round" stroke-linejoin="round"/>
<path d="M8.99951 20.6353V24.9989" stroke="#323232" stroke-width="2" stroke-linecap="round" stroke-linejoin="round"/>
<path d="M4.42822 24.999H13.5711" stroke="#323232" stroke-width="2" stroke-linecap="round" stroke-linejoin="round"/>
</svg>
