<svg width="55" height="55" viewBox="0 0 55 55" fill="none" xmlns="http://www.w3.org/2000/svg">
<path fill-rule="evenodd" clip-rule="evenodd" d="M27.4925 27.4611C25.2932 25.0205 21.6257 24.3639 18.8702 26.5988C16.1146 28.8337 15.7267 32.5703 17.8906 35.2135C19.5251 37.21 24.1684 41.218 26.3428 43.0599C26.7425 43.3984 26.9424 43.5677 27.1764 43.6344C27.3796 43.6922 27.6054 43.6922 27.8085 43.6344C28.0426 43.5677 28.2424 43.3984 28.6421 43.0599C30.8165 41.218 35.4598 37.21 37.0943 35.2135C39.2583 32.5703 38.9177 28.8102 36.1148 26.5988C33.3118 24.3874 29.6918 25.0205 27.4925 27.4611Z" stroke="#7C7C7C" stroke-width="1.5" stroke-linecap="round" stroke-linejoin="round"/>
<path d="M5.5 27.2126C5.5 25.7987 5.5 25.0917 5.68112 24.4406C5.84156 23.8639 6.10522 23.3215 6.45915 22.84C6.85871 22.2964 7.41333 21.8624 8.52256 20.9943L25.1165 8.00806C25.976 7.33537 26.4058 6.99903 26.8804 6.86974C27.2991 6.75566 27.7405 6.75566 28.1592 6.86974C28.6338 6.99903 29.0636 7.33537 29.9232 8.00807L46.517 20.9943C47.6263 21.8624 48.1809 22.2964 48.5805 22.84C48.9344 23.3215 49.198 23.8639 49.3585 24.4406C49.5396 25.0917 49.5396 25.7987 49.5396 27.2126V45.0235C49.5396 47.7809 49.5396 49.1597 49.0063 50.2129C48.5371 51.1393 47.7886 51.8925 46.8678 52.3645C45.8211 52.9012 44.4508 52.9012 41.7103 52.9012H13.3293C10.5888 52.9012 9.21851 52.9012 8.17178 52.3645C7.25105 51.8925 6.50247 51.1393 6.03334 50.2129C5.5 49.1597 5.5 47.7809 5.5 45.0235V27.2126Z" stroke="#7C7C7C" stroke-width="1.5" stroke-linecap="round" stroke-linejoin="round"/>
</svg>
