<svg width="62" height="47" viewBox="0 0 62 47" fill="none" xmlns="http://www.w3.org/2000/svg">
<path d="M52.0002 21.9273C52.0002 26.903 50.006 31.4102 46.778 34.6836C46.4667 34.9993 46.311 35.1572 46.2191 35.309C46.1314 35.4538 46.0804 35.5785 46.0412 35.7434C46.0002 35.9163 46.0002 36.113 46.0002 36.5064V43.661C46.0002 44.5062 46.0002 44.9289 45.8367 45.2517C45.6929 45.5357 45.4634 45.7666 45.1812 45.9113C44.8603 46.0758 44.4403 46.0758 43.6002 46.0758H37.9002C37.0601 46.0758 36.6401 46.0758 36.3192 45.9113C36.037 45.7666 35.8075 45.5357 35.6637 45.2517C35.5002 44.9289 35.5002 44.5062 35.5002 43.661V42.4535C35.5002 41.6083 35.5002 41.1856 35.3367 40.8628C35.1929 40.5788 34.9634 40.3479 34.6812 40.2032C34.3603 40.0387 33.9403 40.0387 33.1002 40.0387H28.9002C28.0601 40.0387 27.6401 40.0387 27.3192 40.2032C27.037 40.3479 26.8075 40.5788 26.6637 40.8628C26.5002 41.1856 26.5002 41.6083 26.5002 42.4535V43.661C26.5002 44.5062 26.5002 44.9289 26.3367 45.2517C26.1929 45.5357 25.9634 45.7666 25.6812 45.9113C25.3603 46.0758 24.9403 46.0758 24.1002 46.0758H18.4C17.5599 46.0758 17.1399 46.0758 16.819 45.9113C16.5368 45.7666 16.3073 45.5357 16.1635 45.2517C16 44.9289 16 44.5062 16 43.661V40.7158C16 40.1059 16 39.8009 15.9137 39.5561C15.831 39.3215 15.7268 39.1572 15.5501 38.9829C15.3658 38.8011 15.0535 38.6552 14.4289 38.3634C11.4823 36.987 8.96786 34.8318 7.14663 32.1607C6.82638 31.691 6.66625 31.4562 6.49524 31.3174C6.33175 31.1847 6.185 31.107 5.98378 31.0464C5.77332 30.983 5.52347 30.983 5.02378 30.983H3.4C2.55992 30.983 2.13987 30.983 1.819 30.8185C1.53676 30.6738 1.3073 30.4429 1.16349 30.1589C0.999999 29.836 1 29.4134 1 28.5681V18.262C1 17.4572 0.999992 17.0549 1.14858 16.7445C1.296 16.4365 1.54299 16.188 1.84909 16.0396C2.15758 15.8901 2.55747 15.8901 3.35724 15.8901C3.93614 15.8901 4.22559 15.8901 4.45872 15.8111C4.71012 15.7258 4.88639 15.6124 5.06879 15.4185C5.23794 15.2388 5.37602 14.9382 5.65219 14.337C6.5386 12.4074 7.75254 10.6613 9.22224 9.17091C9.53355 8.85522 9.68921 8.69738 9.7811 8.54557C9.86877 8.40073 9.9198 8.27606 9.95896 8.11111C9.99999 7.93823 10 7.74153 10 7.34811V3.99872C10 2.9119 10 2.36849 10.2249 2.00323C10.422 1.68326 10.7307 1.44893 11.0906 1.3462C11.5015 1.22892 12.0207 1.37821 13.0593 1.67677L20.177 3.72295C20.298 3.75772 20.3585 3.77511 20.4199 3.78731C20.4745 3.79815 20.5297 3.80593 20.5852 3.8106C20.6476 3.81586 20.7105 3.81586 20.8364 3.81586H22.0579C22.0822 3.81586 22.0944 3.81586 22.1064 3.81528C22.1172 3.81477 22.1275 3.81394 22.1382 3.81273C22.1502 3.81139 22.1618 3.80952 22.1849 3.80578C26.6961 3.0784 36.9495 2.49139 42.3881 5.89838C48.1041 8.93295 52.0002 14.9723 52.0002 21.9273ZM52.0002 21.9273H55C58.3137 21.9273 61 19.2243 61 15.8901" stroke="#7C7C7C" stroke-width="1.5" stroke-linecap="round" stroke-linejoin="round"/>
<mask id="path-2-inside-1_353_7469" fill="white">
<path d="M10.646 14.6115C10.646 13.9783 10.7707 13.3513 11.013 12.7664C11.2553 12.1814 11.6104 11.6499 12.0582 11.2022C12.5059 10.7545 13.0374 10.3993 13.6223 10.157C14.2073 9.91475 14.8343 9.79004 15.4674 9.79004C16.1006 9.79004 16.7275 9.91475 17.3125 10.157C17.8975 10.3993 18.429 10.7545 18.8767 11.2022C19.3244 11.6499 19.6795 12.1814 19.9218 12.7664C20.1641 13.3514 20.2889 13.9783 20.2889 14.6115L18.2805 14.6115C18.2805 14.242 18.2078 13.8762 18.0664 13.5349C17.925 13.1936 17.7178 12.8835 17.4566 12.6223C17.1954 12.3611 16.8853 12.1539 16.544 12.0125C16.2027 11.8711 15.8368 11.7984 15.4674 11.7984C15.098 11.7984 14.7322 11.8711 14.3909 12.0125C14.0496 12.1539 13.7395 12.3611 13.4783 12.6223C13.217 12.8835 13.0098 13.1936 12.8685 13.5349C12.7271 13.8762 12.6543 14.242 12.6543 14.6115H10.646Z"/>
</mask>
<path d="M10.646 14.6115C10.646 13.9783 10.7707 13.3513 11.013 12.7664C11.2553 12.1814 11.6104 11.6499 12.0582 11.2022C12.5059 10.7545 13.0374 10.3993 13.6223 10.157C14.2073 9.91475 14.8343 9.79004 15.4674 9.79004C16.1006 9.79004 16.7275 9.91475 17.3125 10.157C17.8975 10.3993 18.429 10.7545 18.8767 11.2022C19.3244 11.6499 19.6795 12.1814 19.9218 12.7664C20.1641 13.3514 20.2889 13.9783 20.2889 14.6115L18.2805 14.6115C18.2805 14.242 18.2078 13.8762 18.0664 13.5349C17.925 13.1936 17.7178 12.8835 17.4566 12.6223C17.1954 12.3611 16.8853 12.1539 16.544 12.0125C16.2027 11.8711 15.8368 11.7984 15.4674 11.7984C15.098 11.7984 14.7322 11.8711 14.3909 12.0125C14.0496 12.1539 13.7395 12.3611 13.4783 12.6223C13.217 12.8835 13.0098 13.1936 12.8685 13.5349C12.7271 13.8762 12.6543 14.242 12.6543 14.6115H10.646Z" stroke="#7C7C7C" stroke-width="2" mask="url(#path-2-inside-1_353_7469)"/>
<path d="M34.5296 26.5374C33.5696 26.5374 32.7163 26.3241 31.9696 25.8974C31.2363 25.4708 30.6296 24.8508 30.1496 24.0374C29.6696 23.2241 29.3496 22.2374 29.1896 21.0774L29.4496 21.3574H27.1096V20.2774H29.3696L29.1296 20.5374C29.0896 20.1508 29.0696 19.7308 29.0696 19.2774C29.083 18.8241 29.103 18.4241 29.1296 18.0774L29.3896 18.3174H27.1096V17.2374H29.5496L29.1896 17.5374C29.3496 16.3641 29.6696 15.3774 30.1496 14.5774C30.6296 13.7641 31.2363 13.1441 31.9696 12.7174C32.7163 12.2908 33.5696 12.0774 34.5296 12.0774C35.3296 12.0774 36.0696 12.2241 36.7496 12.5174C37.4296 12.8108 38.0096 13.2574 38.4896 13.8574L37.8696 15.0774C37.443 14.5174 36.9563 14.1241 36.4096 13.8974C35.8763 13.6574 35.2896 13.5374 34.6496 13.5374C33.663 13.5374 32.843 13.8641 32.1896 14.5174C31.5363 15.1708 31.0963 16.1574 30.8696 17.4774L30.5096 17.2374H34.3296V18.3174H30.4496L30.8096 18.0774C30.7696 18.4108 30.7496 18.8108 30.7496 19.2774C30.7496 19.7308 30.7696 20.1441 30.8096 20.5174L30.4496 20.2774H34.3296V21.3574H30.6496L30.8696 21.1174C31.0963 22.4508 31.5363 23.4441 32.1896 24.0974C32.843 24.7508 33.663 25.0774 34.6496 25.0774C35.2896 25.0774 35.8763 24.9574 36.4096 24.7174C36.9563 24.4774 37.443 24.0841 37.8696 23.5374L38.4896 24.7374C38.0096 25.3508 37.4296 25.8041 36.7496 26.0974C36.0696 26.3908 35.3296 26.5374 34.5296 26.5374Z" fill="#7C7C7C"/>
</svg>
