<svg width="32" height="33" viewBox="0 0 32 33" fill="none" xmlns="http://www.w3.org/2000/svg">
<path d="M16 0C7.16522 0 0 7.31899 0 16.1862C0 25.0535 7.16522 32.3725 16 32.3725C24.8348 32.3725 32 25.0535 32 16.1862C32 7.31899 24.8348 0 16 0ZM13.4957 32.1613V28.9945C13.4957 27.8685 12.8 26.8128 11.7565 26.3906C7.86087 24.7016 5.07826 20.7606 5.07826 16.1862C5.07826 10.134 9.94783 5.13737 16 5.13737C22.0522 5.13737 26.9217 10.134 26.9217 16.1862C26.9217 23.3645 21.4261 30.1205 13.4957 32.1613Z" fill="#00CAFF"/>
</svg>
